<svg width="1em" height="1em" viewBox="0 0 24 24" xmlns="http://www.w3.org/2000/svg" class="w-7 h-7 pointer-events-none"><path d="M6.091 8.625a.844.844 0 01.115 1.68l-.115.008c-.727 0-1.324.552-1.396 1.26l-.008.143v6.19c0 .728.554 1.327 1.263 1.4l.144.006h6.185c.728 0 1.327-.553 1.399-1.262l.007-.144a.844.844 0 111.687 0 3.094 3.094 0 01-2.905 3.088L12.28 21H6.094a3.094 3.094 0 01-3.088-2.905L3 17.906v-6.19a3.091 3.091 0 013.091-3.091zM17.906 3a3.094 3.094 0 013.088 2.905l.005.189v6.187a3.094 3.094 0 01-2.905 3.088l-.188.006h-6.189A3.094 3.094 0 018.63 12.47l-.005-.189V6.094a3.094 3.094 0 012.905-3.088L11.717 3h6.189zm0 1.688h-6.189c-.728 0-1.327.553-1.399 1.262l-.007.144v6.187c0 .728.554 1.327 1.263 1.4l.143.007h6.189c.728 0 1.327-.554 1.399-1.263l.007-.144V6.094c0-.728-.554-1.327-1.263-1.4l-.143-.006z" fill="currentcolor" fill-rule="evenodd"></path></svg>